<?xml version="1.0" encoding="utf-8"?>
<!-- Generator: Adobe Illustrator 24.3.0, SVG Export Plug-In . SVG Version: 6.00 Build 0)  -->
<svg version="1.1" id="_x34_57bf273-24a3-4fd8-a857-e9b918267d6a"
	 xmlns="http://www.w3.org/2000/svg" xmlns:xlink="http://www.w3.org/1999/xlink" x="0px" y="0px" viewBox="0 0 698 698"
	 style="enable-background:new 0 0 698 698;" xml:space="preserve">
<style type="text/css">
	.st0{opacity:0.5;}
	.st1{fill:url(#SVGID_1_);}
	.st2{fill:#F5F5F5;}
	.st3{fill:#000B8A;}
	.st4{fill:#FFFFFF;}
</style>
<g class="st0">
	
		<linearGradient id="SVGID_1_" gradientUnits="userSpaceOnUse" x1="349" y1="1438" x2="349" y2="740" gradientTransform="matrix(1 0 0 1 0 -740)">
		<stop  offset="0" style="stop-color:#808080;stop-opacity:0.25"/>
		<stop  offset="0.54" style="stop-color:#808080;stop-opacity:0.12"/>
		<stop  offset="1" style="stop-color:#808080;stop-opacity:0.1"/>
	</linearGradient>
	<circle class="st1" cx="349" cy="349" r="349"/>
</g>
<circle class="st2" cx="349.7" cy="346.8" r="341.6"/>
<path class="st3" d="M486.9,481.7L371,427.6c-3.3-1.5-7.1-1.1-10,1.2l-24.9,20l-24.9-20c-2.8-2.3-6.7-2.7-10-1.2l-115.9,54.2
	c-2.9,1.4-4.9,4.1-5.3,7.3c-0.4,3.2,0.9,6.3,3.4,8.3l27.4,22v114c0,3.6,2.1,6.9,5.4,8.4L332.1,696c0,0,0,0,0.1,0
	c0.6,0.3,1.1,0.4,1.7,0.6c0.1,0,0.3,0.1,0.4,0.1c0.6,0.1,1.2,0.2,1.8,0.2c0,0,0,0,0,0h0h0c0,0,0,0,0,0c0.6,0,1.2-0.1,1.8-0.2
	c0.1,0,0.3-0.1,0.4-0.1c0.6-0.1,1.2-0.3,1.7-0.6c0,0,0,0,0.1,0l115.9-54.2c3.3-1.5,5.4-4.8,5.4-8.4v-114l27.4-22
	c2.5-2,3.8-5.2,3.4-8.3C491.9,485.8,489.9,483.1,486.9,481.7z M206.9,492.2l97-45.3l14.7,11.8l-97,45.3L206.9,492.2z M326.7,672.9
	l-97.1-45.4v-97.8l97.1,45.4V672.9z M326.7,554.4l-17.6-8.2l-66.8-31.2l84.4-39.5V554.4z M345.6,475.5l84.4,39.5l-84.4,39.5V475.5z
	 M442.6,627.5l-97.1,45.4V575l41.9-19.6l55.2-25.8V627.5z M450.7,504l-85.1-39.8l-11.9-5.6l14.7-11.8l97,45.3L450.7,504z"/>
<ellipse class="st3" cx="336.2" cy="305.4" rx="24.1" ry="23.8"/>
<path class="st3" d="M336.2,131.5c-151.8,0-274.9,121.8-274.9,272c0,80.4,35.3,152.6,91.3,202.4V405.5c0-12.1,9.9-21.9,22.1-21.9
	h322.7c12.2,0,22.1,9.8,22.1,21.9v200.6c56.2-49.8,91.6-122.1,91.6-202.7C611.1,253.3,488,131.5,336.2,131.5z M506.6,359.3h-342
	c-12.3,0-18.5-11.3-9.8-17.9l171-129.9c5.4-4.1,14.2-4.1,19.6,0l171,129.9C525,348,518.9,359.3,506.6,359.3z M337.2,208.5h-4v-35.6
	h4V208.5z"/>
<rect x="335.2" y="173" class="st4" width="42" height="20.4"/>
</svg>
