<?xml version="1.0" encoding="utf-8"?>
<!-- Generator: Adobe Illustrator 24.3.0, SVG Export Plug-In . SVG Version: 6.00 Build 0)  -->
<svg version="1.1" xmlns="http://www.w3.org/2000/svg" xmlns:xlink="http://www.w3.org/1999/xlink" x="0px" y="0px"
	 viewBox="0 0 1100 800" style="enable-background:new 0 0 1100 800;" xml:space="preserve">
<style type="text/css">
	.st0{fill:none;}
	.st1{fill:#FFFFFF;}
	.st2{font-family:'FelixTitlingMT';}
	.st3{font-size:48px;}
	.st4{opacity:0.1;fill:#4070B7;enable-background:new    ;}
	.st5{fill:#EAC5B0;}
	.st6{fill:#D1E7F5;}
	.st7{fill:#7DB5DB;}
	.st8{fill:#3B455A;}
	.st9{fill:#BCBEC0;}
	.st10{fill:#305399;}
	.st11{fill:#587BC9;}
	.st12{fill:#D7E8F4;}
</style>
<g id="background">
</g>
<g id="shadow">
</g>
<g id="object">
	<g>
		<path class="st0" d="M522,644.1c-28.2,0.1-56.4,0.8-84.5,3.9c-10.6,1.2-21,3.8-31.6,4.8c-21.2,2.1-42.1,6-63.4,7.8
			c-17.2,1.4-34.4,2.3-51.5,4.1c-16,1.7-33.8,1.3-49.7-1.5c-11.8-2.1-23.6-3.3-35.2-6.7c-13-3.8-27.1-6.5-40.6-6.4
			c-19.3,0.1-38,0.2-56.5,6.8c-6.5,2.3-14.4,6.2-19.3,11.1c-11.3,11.3-12.8,39.4-1.5,51.1c18.9,19.7,59.3,27.4,85.8,27.8
			c29.1,0.4,57.3-1.8,86.4-3c27-1.2,54-2.9,81.1-2.8c55.3,0.1,110.7,0,165.9-3.7c51.9-3.5,103.9-2.3,155.9-2.3
			c53.3,0,106.3,0.4,159.2,7.5c23.1,3.1,46.6,4.2,69.8,6.3c20.8,1.9,40.7,0,61.4-1.8c17.4-1.5,34.6-6,50.4-13.5
			c12.5-6,34.7-24.5,38.6-38.8c10.7-39.9-151.3-39-176.2-38.9c-27.8,0.1-55.9,1-83.7,0c-11.7-0.4-23.2-2.7-34.6-5.2
			c-11.4-2.5-22.8-1.9-34.4-2.9c-48.1-4.4-96.3-3.7-144.5-3.7C553.4,644.2,537.7,644.1,522,644.1z"/>
		<text transform="matrix(1 0 0 1 81.3618 783.4678)" class="st1 st2 st3">SCHOOL BUILDING INVENTORY SYSTEM</text>
		<path class="st4" d="M624.4,164.6c-64.7-2.2-126.4-23.1-185.2-46S322,70.4,258.8,58.3c-40.6-7.8-87.1-8.9-119.8,12.9
			c-31.5,21-41.7,57.2-47.2,90.7c-4.1,25.3-6.5,51.9,4.7,75.5c7.8,16.4,21.7,30.2,31.4,45.9c33.5,54.7,9.8,122.2-26.4,175.6
			c-17,25.1-36.8,49-49.9,75.7s-19.2,57.2-7.7,84.5c11.4,27,38.5,47.2,67.9,61.5c59.7,29,130,37.2,198.6,41.9
			c151.8,10.4,304.5,5.9,456.7,1.4c56.3-1.7,112.9-3.4,168.3-12.1c30.8-4.8,62.6-12.5,84.9-31c28.4-23.5,35.4-63.4,16.4-92.9
			c-31.9-49.5-120-61.8-142.3-114.9c-12.3-29.2,0.3-61.8,18.2-88.9c38.2-58.2,102.3-109.2,105.7-175.7c2.3-45.7-28.5-91.4-76.1-113
			c-49.9-22.6-119.2-19.8-156,17.7C748.2,151.7,681.5,166.5,624.4,164.6z"/>
		<g>
			<path class="st5" d="M365.3,346.1c-0.3,0-0.6,0.1-0.8,0.2c-2.5,0.7-3.1,3.3-5.1,4.5c-0.9,0.6-4,0.1-3.7,1.8
				c0.1,0.6,0.4,2.8,0.7,4.9c-0.4,1.8-0.6,3.6-1.1,5.3c-1.3,4.4-9.3,12.1-4.7,16.4c0.9,0.8,1.8,1.7,2.9,2.2c0.9,0.4,1.9,0.5,2.9,0.6
				c0.8,0,2,0.3,2.6-0.2c0.6-0.5,0.9-2.5,1.2-3.2c0.8-2.2,1.6-4.3,2.5-6.5c0.8-2.1,2-4.6,4.2-5c0.5-0.1,1-0.1,1.5-0.2
				c0.5-0.2,1-0.6,1.4-1c1.5-1.4,2.9-3,4-4.7c2-3.1-0.3-8.4-1.3-11.5c-0.3-0.8-0.6-1.5-1.1-2.1c-0.9-0.9-2.4-1.1-3.7-1.2
				C366.9,346.1,366.1,346,365.3,346.1z"/>
			<path class="st6" d="M335.3,421.9c9.9-8.3,18.6-17.9,25.9-28.5c2.8-4.1,8.2-9.9,5.8-15.2c-2.5-5.4-13.9-8.2-19.1-9.4
				c-8.9,15-24.3,41.9-45.7,26.8c-5.6-4-9.7-10.7-16.4-11.8c-4.3-0.7-8.7,1.2-11.6,4.4c-11.4,12.4-0.6,27.3,9.2,36.5
				c10.4,9.8,27.1,11.8,39.9,5.4c3.8-1.9,7.3-4.5,10.6-7.2C334.4,422.6,334.9,422.3,335.3,421.9z"/>
		</g>
		<g>
			<path class="st5" d="M649.5,360.3c0.3-0.1,0.5-0.1,0.8-0.2c2.6-0.2,4,1.9,6.2,2.3c1,0.2,3.7-1.3,4,0.3c0.1,0.6,0.7,2.7,1.1,4.7
				c1,1.5,1.8,3,2.9,4.4c2.8,3.5,12.7,7.7,10.1,13.3c-0.5,1.1-1,2.2-1.9,3c-0.7,0.7-1.6,1.1-2.5,1.5c-0.7,0.3-1.7,1-2.4,0.7
				c-0.7-0.3-1.7-1.9-2.3-2.5c-1.5-1.7-3-3.4-4.6-5.1c-1.5-1.7-3.4-3.5-5.6-3.1c-0.5,0.1-0.9,0.3-1.4,0.3c-0.5,0-1.1-0.2-1.6-0.4
				c-1.9-0.8-3.7-1.7-5.3-2.9c-2.9-2.1-2.7-7.8-2.8-11c0-0.8,0-1.6,0.3-2.3c0.5-1.2,1.7-1.8,2.9-2.4
				C648,360.9,648.7,360.5,649.5,360.3z"/>
			<path class="st7" d="M705,421.9c-2.8-0.2-5.7-0.4-8.4-1.4c-2.1-0.8-4.1-2-6-3.2c-11.8-7.8-22.4-17.4-31.2-28.4
				c3.7-5.5,8.4-10.3,14-14c9.1,7.1,18.9,13.6,29,19.2c2.1,1.1,4.2,2.3,6.5,2.8c3.3,0.8,6.8,0.4,10.2-0.1
				c13.1-1.7,26.3-3.4,39.4-5.2c7.9-1,16.2-2.1,23.8,0.3c21.2,6.6,16,34.1-4.6,35.7C754.5,429.5,728.3,423.7,705,421.9z"/>
		</g>
		<g>
			<path class="st8" d="M257.9,701.9l-0.5,5.8l-3.8,4.7c0,0-1.1,7.1,1,8.3c2.1,1.2,34.7,5.1,34.7,5.1l3.4-5l-2.7-5.5l-17.2-7.9
				l-5.9-6.6L257.9,701.9z"/>
			<path class="st8" d="M292,689.4l-0.5,5.8l-3.8,4.7c0,0-1.1,7.1,1,8.3c2.1,1.2,34.2,5.1,34.2,5.1l3.3-5l-2.6-5.5l-17-7.9l-5.8-6.6
				L292,689.4z"/>
			<g>
				<path class="st9" d="M252.7,588.3c2.8,5.9,5.3,11.2,5.8,18.8c0.4,7.5-0.9,14.9-2,22.3c-3.7,25.6-3.3,51.6-2.9,77.5
					c8.9,0.4,17.9,0.6,26.8,0.6c1.5,0,3.2-0.1,4.2-1.2c1-1.1,0.9-2.9,0.7-4.4c-2.1-18.4-1.9-37-1.6-55.5c0.1-9.1,0.4-16.9,2.3-25.7
					c1.9-8.7,1.5-17.8,0.9-26.6c-1.5-21.7-5.9-42.9-7.1-64.6c-0.2-3.9-0.6-8.1-3.1-11.1c-3.1-3.6-8.3-4.3-13-4.3
					c-13,0-27.7,2.1-28.3,17.8c-0.2,5.3,1.2,10.4,2.6,15.5c3.4,11.6,7,23.3,11.7,34.4C250.7,584.1,251.7,586.2,252.7,588.3z"/>
				<path class="st9" d="M289,578.3c2.7,6,5.1,11.5,5.2,19.1c0.1,7.5-1.8,14.8-3.3,22.2c-5.2,25.4-6.2,51.4-7.1,77.3
					c9.5,0.8,18.9,1.5,28.4,1.9c1.6,0.1,3.4,0.1,4.6-1c1.1-1.1,1.1-2.8,1-4.3c-1.5-23-3.3-46-1.6-69c0.6-8.8,1.7-17.6,2.2-26.4
					c1-17.1-0.4-34.3-2.5-51.3c-1.3-10.5,0.5-32.9-10.1-39.3c-4.8-2.9-10.9-3.3-16.5-2.4c-2.9,0.4-5.7,1.2-8.1,2.7
					c-4.7,2.9-7.1,8.2-7.6,13.5c-0.5,5.2,0.7,10.5,2,15.6c3,11.7,6.3,23.6,10.7,34.9C287.1,574.1,288,576.2,289,578.3z"/>
				<path class="st6" d="M248.5,382.2c-8.1,6-13.4,16.4-14.1,27.2c-0.8,13.1-4.2,26.2-5.3,39.4c-2.2,26-1.7,52.1,1.4,78
					c0.3,2.9,0.9,6.1,3.2,7.8c2.6,1.9,6.3,1.1,9.4,0.1c24.6-7.3,49.9-12.4,75.4-15.5c1.5-0.2-5-61.6-5.7-67.2
					c-2.4-20-6.1-40.8-18.9-57.2c-5.4-6.9-12.2-13-20.4-16.1C264.1,375.1,255.3,377.1,248.5,382.2z"/>
				<g>
					<path class="st5" d="M285.4,340.3c0.3,5.3,0.6,10.9-2.1,15.5c-2.3,3.9-6.3,6.4-9.3,9.7c-1.9,2-3.4,4.6-3.8,7.4
						c-0.3,2.7,1.1,5.1,1.1,7.8c0,0.3,0,0.5-0.1,0.7c-0.1,0.2-0.4,0.4-0.6,0.5c-1.2,0.7-2.7,0.7-4.1,0.7c-1.7,0-3.5,0.2-5.1,0
						c-2.1-0.3-1.7-0.7-1.9-2.9c-0.3-3.3-0.7-6.5-1.8-9.7c-2.2-6.4-6.8-11.9-8.1-18.7c-1.5-7.5,0.7-14.8,3.1-21.9
						c1.1-3.2,2.2-6.4,4.4-9c4.8-5.6,16-7.4,21.4-1.7C284.7,325.8,284.8,331.4,285.4,340.3z"/>
					<path class="st8" d="M283.7,336.7c3.5,4.8,4,11.5,1.4,16.8c4-2.8,5.9-7.8,6.7-12.7c0.4-2.7,0.6-5.4,0.3-8.1
						c-1-8.5-7.7-16.3-16.2-17.5c-5.6-0.7-5.6,6.4-3.4,9.9C275.5,329.7,280.5,332.4,283.7,336.7z"/>
					<path class="st8" d="M268.8,310.8c-3.1-1.5-6.8-1.6-10.2-1.3c-4.8,0.4-14.3,1.8-20,5.4c-3.2-6.8-12.4-12-19.1-8.4
						c-3.9,2.1-5.6,6.6-3.8,10.1c0.5,0.9,1.1,1.7,1.9,2.4c0.7,0.6,1.5,1,2.1,1.6c2.3,2.4,0.2,5.8-1.5,8.5c-1.9,3.1-3.2,6.4-3.8,9.7
						c-0.4,1.9-0.5,3.9,0.4,5.7c0.9,1.8,3,3.3,5.4,3.2c4.3-0.2,5.1-3.8,5.3-7.1c0.3-3.8,0.9-7.1,2.6-10.7c0.6-1.3,1.5-2.7,2.9-3
						c0.3-0.1,0.5-0.1,0.8-0.1c-0.9,3.2-1.4,6.4-1,9.9c1,7,3.6,13.9,7.9,19.6c4.3,5.7,10.4,10.1,17.2,12c0.5-4.3-4.1-7.6-4.9-11.9
						c-0.5-2.3,0.3-4.7,1.5-6.8c1.2-2,2.9-3.7,4.6-5.4c2.9-2.9,5.7-5.8,8.6-8.7c2.3-2.4,4.7-4.7,6.5-7.6
						C275.8,322.1,275.7,314.1,268.8,310.8z"/>
				</g>
			</g>
		</g>
		<g>
			<circle class="st10" cx="515.4" cy="264.4" r="169.2"/>
			<g>
				<g>
					<g>
						<path class="st1" d="M651.2,205.9c-7.4-17.9-18.1-34-31.6-47.8c-13.5-13.8-29.3-24.6-46.9-32.2c-18.2-7.8-37.5-11.8-57.4-11.8
							c-19.9,0-39.2,4-57.4,11.8c-17.6,7.6-33.3,18.4-46.9,32.2c-13.5,13.8-24.2,29.9-31.6,47.8c-7.7,18.5-11.6,38.2-11.6,58.5
							s3.9,40,11.6,58.5c7.4,17.9,18.1,34,31.6,47.8c13.5,13.8,29.3,24.6,46.9,32.2c18.2,7.8,37.5,11.8,57.4,11.8
							c19.9,0,39.2-4,57.4-11.8c17.6-7.6,33.3-18.4,46.9-32.2c13.5-13.8,24.2-29.9,31.6-47.8c7.7-18.5,11.6-38.2,11.6-58.5
							S658.9,224.4,651.2,205.9z M647.9,264.4c0,11.1-1.3,21.9-3.8,32.4h-44.3c2.7-12.2,4-24.6,4-37c0-11.7-1.2-23.2-3.5-34.5h42.1
							C646,237.8,647.9,251,647.9,264.4z M609.1,168.8c11.9,12.1,21.2,26.1,27.8,41.4h-40.5c-1.5-4.8-3.2-9.4-5.1-14.1
							c-6.7-16-15.9-31.1-27.6-45c-6-7.2-12-13.2-17.5-18.2C569.8,138.6,591.5,150.9,609.1,168.8z M522.8,133.1
							c6.9,5.1,18.3,14.4,29.6,27.9c10.6,12.7,19.1,26.5,25.2,41.1c1.1,2.7,2.2,5.4,3.1,8.1h-57.9V133.1z M585.1,225.3
							c2.6,11.2,3.9,22.7,3.9,34.5c0,12.5-1.5,24.9-4.4,37h-61.8v-71.5H585.1z M443.7,259.8c0-11.8,1.3-23.3,3.9-34.5H508v71.5
							h-59.8C445.2,284.6,443.7,272.2,443.7,259.8z M508,134.6v75.6H452c0.9-2.6,1.9-5.2,3-7.8c6-14.5,14.4-28.3,25-41
							C490.4,148.9,500.8,140,508,134.6z M421.6,168.8c18.3-18.6,40.9-31.1,65.6-36.5c-5.6,5.1-11.9,11.4-18.2,18.8
							c-11.6,13.9-20.9,29-27.6,45c-1.9,4.6-3.6,9.3-5.1,14.1h-42.5C400.4,194.9,409.7,180.9,421.6,168.8z M388.4,225.3h44
							c-2.4,11.2-3.5,22.7-3.5,34.5c0,12.5,1.3,24.8,4,37h-46.3c-2.5-10.5-3.8-21.3-3.8-32.4C382.8,251,384.7,237.8,388.4,225.3z
							 M421.6,360c-13.6-13.9-23.9-30.2-30.4-48.1h45.7c1.3,4.3,2.9,8.6,4.5,12.8c6.6,16.7,15.8,32.9,27.4,48
							c7.6,9.9,15.1,18.1,21.5,24.4C464.5,392.2,440.7,379.4,421.6,360z M480.5,363.5c-10.7-14.1-19.3-29-25.4-44.4
							c-0.9-2.4-1.8-4.8-2.6-7.1H508v81.2C500.9,386.8,490.7,376.8,480.5,363.5z M522.8,394.8v-82.8h57.4c-0.8,2.3-1.6,4.6-2.5,6.9
							c-6.1,15.4-14.5,30.3-25.2,44.3C541.2,377.9,529.9,388.6,522.8,394.8z M609.1,360c-18.4,18.8-41.3,31.4-66.3,36.7
							c6.3-6.3,13.7-14.3,21-23.9c11.6-15.2,20.8-31.3,27.4-48c1.7-4.2,3.2-8.5,4.5-12.8h43.7C633,329.7,622.7,346.1,609.1,360z"/>
					</g>
				</g>
			</g>
		</g>
		<g>
			<g>
				<g>
					<path class="st5" d="M877.9,699.1c-1.6,1.9-3.7,3.3-5.5,5c-6.6-5.5-12.7-11-18.1-17.8c5-0.6,5.9-4.9,11.7-0.3
						C867.8,687.5,874.7,697,877.9,699.1z"/>
					<path class="st8" d="M868.4,701.5c-1.2,1-1.4,2.1-1.4,3.5c0,0.8,0.3,1.6,0.1,2.4c-0.2,0.8-0.6,1.4-1.1,2.1
						c-2.7,3.7-9.9,11.2-0.5,12.2c8.5,0.9,15.5-10.9,19.3-17.8c0.3-0.5,0.6-0.9,0.5-1.4c0-0.5-0.3-1.1-0.6-1.6
						c-1.8-2.8-4-6.4-7.7-4.4c-1.6,0.9-1.8,2.8-3.5,3.7C872.2,700.9,869.6,700.5,868.4,701.5z"/>
				</g>
				<path class="st11" d="M842.3,557.7c1.1,16.9-13.9,41.5-9.6,55.3c9,28.8,18.5,45.2,34.9,68c1.2,1.6,5.1,5.3,6.7,7.3
					c-4,5.3-8.7,8.9-13.9,13.4c-24.1-20.6-45.6-33.9-61.2-65.3c-12.3-24.8-16.6-65.1-23-94.4c-1.1-4.9-2.7-11.8,0.5-16.3
					c2.5-3.4,5.9-4.9,10.3-5.9c11.8-2.8,27.9-9,38.9-1.6C838.1,526.3,841.5,544.7,842.3,557.7z"/>
			</g>
			<g>
				<g>
					<path class="st5" d="M732.3,714.8c-2.5,0.5-5.1,0.3-7.6,0.5c-2-8.8-3.6-17.5-3.8-26.7c4.5,2.9,7.8,0.2,9.5,7.7
						C731,698.7,730.9,710.9,732.3,714.8z"/>
					<path class="st8" d="M723.1,710.6c-1.6,0-2.4,0.9-3.3,2c-0.5,0.6-0.8,1.5-1.4,2.1c-0.6,0.6-1.3,0.7-2.2,0.9
						c-4.5,1.1-14.9,2.7-8.1,9.3c6.2,6,19,1.1,26.4-2c0.5-0.2,1-0.4,1.3-0.8c0.3-0.4,0.5-1.1,0.5-1.7c0.4-3.3,0.9-7.7-3.2-8.4
						c-1.8-0.3-3.3,1.1-5.2,0.7C726.5,712.5,724.6,710.6,723.1,710.6z"/>
				</g>
				<path class="st11" d="M798.6,581.6c-12.2,12.2-47.1,21.1-52.8,35.1c-2.3,5.6-9.8,47.2-10.9,76.5c-0.1,2.1,0.9,7.5,0.9,10.3
					c-6.5,1.9-12.4,1.5-19.4,2c-5.1-33.7-10.4-92.8-10.4-92.8c6.9-29.5,40.4-63.3,59-89.9c3.1-4.4,6.7-10.4,12.2-11.2
					c4.2-0.6,7.6,0.9,11.4,3.4c10.2,6.6,25.8,14,28,27.2C819.1,556.7,807.9,572.3,798.6,581.6z"/>
			</g>
			<path class="st7" d="M793.3,398.6c11.2,9.8,20.5,23.8,27.1,39c11.6,27,16.1,57.9,20.3,88.1c1.4,10.1,2.8,20.1,4.3,30.2
				c1.4,9.9,1.1,12.2-7.1,12.9c-15,1.4-30.9,1.2-45.4-4.3c-6.9-2.6-13.6-6.4-20.7-8c-10.3-2.4-19.9,2.4-29.9,1.7
				c1-10.6,3.4-20.6,3.6-31.5c0.2-10.9-0.5-21.8-1.4-32.6c-1.7-18.9-2.5-37.9-4.1-56.8c-1.1-13.5-3.9-24.1,5.3-35.5
				c5-6.2,14.2-17,22.5-16.9C776.6,385.2,787.1,393.1,793.3,398.6z"/>
			<g>
				<path class="st5" d="M744.3,380.9c3.1,2.9,6.9,4.8,10.4,7.2c3.4,2.3,5.3,4.9,7.4,8.3c1.5,2.5,3.3,4.2,6.7,3.3
					c6.4-1.6,2.6-5.9,2.5-10.1c-0.1-4.8,1.9-9.4,2.7-14.1c2.4-13.4-8.1-33.8-23.9-32.6C732.8,344.3,735,372.1,744.3,380.9z"/>
			</g>
			<path class="st8" d="M765,357.8c1.7,1.1,2.7,3.5,1.7,5.4c-0.5,1-1.5,1.7-2.1,2.6c-1.7,2.7,0.3,6.4,2.8,8.4c2.5,2,5.7,3.4,7.4,6.2
				c8.6-7,15.3-17.1,15.9-28.3c0.4-8-2.8-16.4-8.7-21.8c-7-6.4-14.1-6-23.2-6.8c-3.8-0.3-7.6-0.6-11.2,0.5c-3.3,1-6.1,3.1-9.4,4.2
				c-5.4,1.8-12.2,1.2-15.7,5.7c-2,2.6-2.1,6.3-1,9.4c1.1,3.1,3.3,5.7,5.6,8c3.1,3.2,6.5,6,10.2,8.5c-1.7-1.2,4.3-7.9,5.7-8.2
				c3.3-0.7,8.4,3,11.7,3.8C757.9,356.1,762.1,356,765,357.8z"/>
		</g>
		<g>
			<g>
				<polygon class="st8" points="528.4,345.5 581,563.1 623.7,520.1 674.5,586.4 698.8,567.8 723,549.2 672.2,482.9 724.9,452.8 
									"/>
				<path class="st1" d="M726.4,545.8c-5.7-7.5-11.4-14.9-17.1-22.4c-9.1-11.9-18.2-23.8-27.4-35.7c-1.6-2.1-3.2-4.2-4.8-6.3
					c14.7-8.4,29.4-16.8,44.1-25.2c2.2-1.3,4.4-2.5,6.6-3.8c1.6-0.9,0.8-3.1-0.4-3.8c-6.5-3.6-13.1-7.1-19.6-10.7
					c-15.7-8.6-31.3-17.1-47-25.7c-18.9-10.3-37.8-20.6-56.6-30.9c-16.3-8.9-32.7-17.8-49-26.8c-5.4-3-10.8-5.9-16.3-8.9
					c-2.5-1.4-5-3-7.7-4.2c-0.1-0.1-0.2-0.1-0.3-0.2c-0.8-0.5-1.6-0.3-2.1,0.2c-0.7,0.3-1.2,1-0.9,2.1c1.7,7.2,3.5,14.5,5.2,21.7
					c4.2,17.4,8.4,34.7,12.6,52.1c5.1,20.9,10.1,41.8,15.2,62.7c4.4,18.1,8.7,36.2,13.1,54.3c2.1,8.8,4.2,17.7,6.4,26.5
					c0,0.1,0.1,0.3,0.1,0.4c0.5,1.9,2.5,2.5,3.9,1.1c12.5-12.5,24.9-25.1,37.4-37.6c1.1-1.1,2.3-2.3,3.4-3.4
					c5.2,6.8,10.4,13.6,15.6,20.4c9.1,11.9,18.2,23.8,27.4,35.7c2.1,2.7,4.2,5.5,6.3,8.2c0.7,0.9,2.1,1.2,3.1,0.4
					c12.9-9.9,25.7-19.7,38.6-29.6c3.3-2.5,6.6-5.1,9.9-7.6C726.9,548.1,727.1,546.7,726.4,545.8z M684.7,574.9
					c-2.7,2.1-5.4,4.2-8.2,6.3c-5.3-6.9-10.5-13.7-15.8-20.6c-9.1-11.9-18.2-23.8-27.4-35.7c-2.1-2.7-4.2-5.5-6.3-8.2
					c-0.9-1.2-2.5-1-3.5-0.1c-12.5,12.5-24.9,25.1-37.4,37.6c-0.8,0.8-1.6,1.6-2.4,2.4c-1.4-5.9-2.8-11.8-4.3-17.6
					c-4.2-17.4-8.4-34.7-12.6-52.1c-5.1-20.9-10.1-41.8-15.2-62.7c-4.4-18.1-8.7-36.2-13.1-54.3c-1.8-7.4-3.6-14.9-5.4-22.3
					c5.1,2.8,10.3,5.6,15.4,8.4c15.7,8.6,31.3,17.1,47,25.7c18.9,10.3,37.8,20.6,56.6,30.9c16.3,8.9,32.7,17.8,49,26.8
					c5.4,3,10.8,5.9,16.3,8.9c1.4,0.8,2.8,1.7,4.3,2.5c-14.2,8.1-28.5,16.3-42.7,24.4c-2.2,1.3-4.4,2.5-6.6,3.8
					c-1,0.6-1.1,2.2-0.4,3.1c5.7,7.5,11.4,14.9,17.1,22.4c9.1,11.9,18.2,23.8,27.4,35.7c1.7,2.2,3.3,4.3,5,6.5
					C709.3,556.1,697,565.5,684.7,574.9z"/>
			</g>
		</g>
		<g>
			<path class="st5" d="M648.7,519.3c0.1-0.3,0.2-0.5,0.3-0.8c1.1-2.3,3.7-2.4,5.2-4.1c0.7-0.8,0.8-3.8,2.3-3.2
				c0.6,0.2,2.6,0.8,4.6,1.5c1.8-0.1,3.5,0,5.3-0.2c4.4-0.6,13.2-6.9,16.6-1.8c0.7,1,1.3,2,1.6,3.2c0.2,0.9,0.2,1.9,0.1,2.9
				c-0.1,0.8,0,2-0.6,2.4c-0.6,0.5-2.6,0.5-3.3,0.7c-2.2,0.4-4.5,0.9-6.7,1.3c-2.2,0.4-4.7,1.1-5.5,3.2c-0.2,0.5-0.2,1-0.5,1.4
				c-0.3,0.5-0.7,0.8-1.1,1.2c-1.6,1.2-3.4,2.3-5.2,3.1c-3.3,1.4-8.1-1.7-10.9-3.2c-0.7-0.4-1.4-0.8-1.9-1.4c-0.7-1-0.7-2.4-0.6-3.7
				C648.4,520.8,648.5,520,648.7,519.3z"/>
			<path class="st7" d="M730.1,503.2c-1.6,2.3-3.3,4.7-5.5,6.5c-1.8,1.4-3.8,2.5-5.9,3.5c-12.7,6.1-26.4,10.3-40.4,12.2
				c-2.9-6-4.5-12.6-4.9-19.2c10.8-4.2,21.3-9.2,31.3-15.1c2-1.2,4.1-2.4,5.8-4.1c2.4-2.4,3.8-5.7,5.2-8.8
				c5.3-12.2,10.5-24.3,15.8-36.5c3.2-7.3,6.5-14.9,12.5-20.3c16.5-14.8,37.5,3.8,28.3,22.3C761.9,464.6,743.5,484.1,730.1,503.2z"
				/>
		</g>
		<g>
			<circle class="st12" cx="860.3" cy="303.2" r="41.7"/>
		</g>
		<g>
			<path class="st5" d="M355.9,502.9c0-0.3-0.1-0.5-0.2-0.8c-0.8-2.4-3.4-2.9-4.6-4.8c-0.6-0.8-0.3-3.9-1.9-3.5
				c-0.6,0.1-2.7,0.5-4.8,0.9c-1.7-0.3-3.5-0.5-5.2-0.9c-4.3-1.1-12.2-8.5-16.2-3.9c-0.8,0.9-1.6,1.8-2,2.9
				c-0.3,0.9-0.4,1.9-0.4,2.9c0,0.8-0.2,2,0.3,2.5c0.5,0.6,2.5,0.8,3.2,1.1c2.2,0.7,4.3,1.4,6.5,2.1c2.1,0.7,4.5,1.7,5.1,3.9
				c0.1,0.5,0.1,1,0.3,1.4c0.2,0.5,0.6,0.9,1,1.3c1.5,1.4,3.1,2.7,4.8,3.7c3.1,1.8,8.2-0.6,11.2-1.8c0.7-0.3,1.5-0.6,2-1.2
				c0.9-0.9,1-2.3,1.1-3.6C356,504.4,356,503.6,355.9,502.9z"/>
			<path class="st6" d="M277.1,476.7c1.3,2.5,2.7,5.1,4.7,7.1c1.6,1.7,3.5,3,5.4,4.2c11.9,7.7,24.9,13.5,38.5,17.2
				c3.6-5.6,6.1-11.9,7.2-18.4c-10.2-5.5-20-11.8-29.2-18.9c-1.9-1.4-3.8-2.9-5.2-4.8c-2.1-2.7-3.1-6.1-4-9.4
				c-3.7-12.7-7.4-25.5-11.1-38.2c-2.2-7.7-4.6-15.6-9.9-21.7c-14.5-16.8-37.7-0.9-30.9,18.6C250.3,434.5,266.2,456.2,277.1,476.7z"
				/>
		</g>
		
			<image style="overflow:visible;" width="300" height="300" xlink:href="../../../Department-of-Education-DepEd-Seal-300x300.png"  transform="matrix(0.59 0 0 0.5967 153 93)">
		</image>
		
			<image style="overflow:visible;" width="512" height="512" xlink:href="../../../cropped-div-mlybly-seal.png"  transform="matrix(0.3281 0 0 0.3281 690 88)">
		</image>
		
			<image style="overflow:visible;" width="1280" height="653" xlink:href="../../../1280px-Department_of_Education_(DepEd).svg.png"  transform="matrix(0.1359 0 0 0.144 368 451)">
		</image>
	</g>
</g>
</svg>
